<svg width="10" height="10" viewBox="0 0 10 10" fill="none" xmlns="http://www.w3.org/2000/svg">
    <g clip-path="url(#clip0_340_4529)">
        <path fill-rule="evenodd" clip-rule="evenodd"
            d="M8.55469 5C8.55469 5.94276 8.18018 6.84691 7.51354 7.51354C6.84691 8.18018 5.94276 8.55469 5 8.55469C4.05724 8.55469 3.15309 8.18018 2.48646 7.51354C1.81982 6.84691 1.44531 5.94276 1.44531 5C1.44531 4.05724 1.81982 3.15309 2.48646 2.48646C3.15309 1.81982 4.05724 1.44531 5 1.44531C5.94276 1.44531 6.84691 1.81982 7.51354 2.48646C8.18018 3.15309 8.55469 4.05724 8.55469 5ZM9.375 5C9.375 6.16032 8.91406 7.27312 8.09359 8.09359C7.27312 8.91406 6.16032 9.375 5 9.375C3.83968 9.375 2.72688 8.91406 1.90641 8.09359C1.08594 7.27312 0.625 6.16032 0.625 5C0.625 3.83968 1.08594 2.72688 1.90641 1.90641C2.72688 1.08594 3.83968 0.625 5 0.625C6.16032 0.625 7.27312 1.08594 8.09359 1.90641C8.91406 2.72688 9.375 3.83968 9.375 5ZM3.5125 2.93281C3.43475 2.86036 3.33191 2.82092 3.22565 2.82279C3.11939 2.82467 3.01801 2.86772 2.94286 2.94286C2.86772 3.01801 2.82467 3.11939 2.82279 3.22565C2.82092 3.33191 2.86036 3.43475 2.93281 3.5125L6.4875 7.06719C6.52505 7.10748 6.57033 7.13981 6.62064 7.16222C6.67096 7.18464 6.72527 7.1967 6.78034 7.19767C6.83541 7.19864 6.89011 7.18851 6.94119 7.16788C6.99226 7.14725 7.03865 7.11655 7.0776 7.0776C7.11655 7.03865 7.14725 6.99226 7.16788 6.94119C7.18851 6.89011 7.19864 6.83541 7.19767 6.78034C7.1967 6.72527 7.18464 6.67096 7.16222 6.62064C7.13981 6.57033 7.10748 6.52505 7.06719 6.4875L3.5125 2.93281Z"
            fill="white" />
    </g>
    <defs>
        <clipPath id="clip0_340_4529">
            <rect width="10" height="10" fill="white" />
        </clipPath>
    </defs>
</svg>
