<svg width="23" height="23" viewBox="0 0 23 23" fill="none" xmlns="http://www.w3.org/2000/svg">
    <path
        d="M11.75 20.625C12.9814 20.6266 14.2009 20.3848 15.3386 19.9136C16.4762 19.4424 17.5095 18.7509 18.3791 17.8791C19.2509 17.0095 19.9424 15.9762 20.4136 14.8386C20.8848 13.7009 21.1266 12.4814 21.125 11.25C21.1266 10.0186 20.8848 8.79909 20.4136 7.66146C19.9423 6.52382 19.2509 5.49053 18.3791 4.62095C17.5095 3.74908 16.4762 3.05766 15.3386 2.58642C14.2009 2.11518 12.9814 1.87341 11.75 1.87501C10.5186 1.87344 9.29909 2.11522 8.16146 2.58646C7.02382 3.0577 5.99053 3.7491 5.12095 4.62095C4.2491 5.49053 3.5577 6.52382 3.08646 7.66146C2.61522 8.79909 2.37344 10.0186 2.37501 11.25C2.37341 12.4814 2.61518 13.7009 3.08642 14.8386C3.55766 15.9762 4.24908 17.0095 5.12095 17.8791C5.99053 18.7509 7.02382 19.4423 8.16146 19.9136C9.29909 20.3848 10.5186 20.6266 11.75 20.625Z"
        stroke="#32A680" stroke-width="1.66667" stroke-linejoin="round" />
    <path d="M8 11.25L10.8125 14.0625L16.4375 8.4375" stroke="#32A680" stroke-width="1.66667"
        stroke-linecap="round" stroke-linejoin="round" />
</svg>
