<svg width="20" height="20" viewBox="0 0 20 20" fill="none" xmlns="http://www.w3.org/2000/svg">
    <g clip-path="url(#clip0_554_5250)">
        <path
            d="M10 18.3332C11.0946 18.3346 12.1786 18.1197 13.1899 17.7008C14.2011 17.2819 15.1196 16.6673 15.8925 15.8923C16.6675 15.1194 17.2821 14.2009 17.701 13.1897C18.1199 12.1784 18.3348 11.0944 18.3334 9.99984C18.3348 8.90529 18.1198 7.82125 17.701 6.81002C17.2821 5.79879 16.6675 4.88031 15.8925 4.10734C15.1196 3.33236 14.2011 2.71776 13.1899 2.29888C12.1786 1.88 11.0946 1.66509 10 1.66651C8.90548 1.66512 7.82144 1.88003 6.81021 2.29891C5.79898 2.71779 4.88049 3.33237 4.10753 4.10734C3.33256 4.88031 2.71797 5.79879 2.29909 6.81002C1.88022 7.82125 1.6653 8.90529 1.66669 9.99984C1.66528 11.0944 1.88018 12.1784 2.29906 13.1897C2.71794 14.2009 3.33254 15.1194 4.10753 15.8923C4.88049 16.6673 5.79898 17.2819 6.81021 17.7008C7.82144 18.1197 8.90548 18.3346 10 18.3332Z"
            stroke="white" stroke-width="2" stroke-linejoin="round" />
        <path d="M6.66675 10L9.16675 12.5L14.1667 7.5" stroke="white" stroke-width="2"
            stroke-linecap="round" stroke-linejoin="round" />
    </g>
    <defs>
        <clipPath id="clip0_554_5250">
            <rect width="20" height="20" fill="white" />
        </clipPath>
    </defs>
</svg>
