<svg width="20" height="20" viewBox="0 0 20 20" fill="none" xmlns="http://www.w3.org/2000/svg">
    <path
        d="M15.2982 5.46667L14.3385 15.3843C14.2948 15.8358 14.0844 16.2549 13.7485 16.5597C13.4126 16.8646 12.9753 17.0334 12.5216 17.0333H7.47829C7.02466 17.0334 6.58727 16.8646 6.25137 16.5597C5.91547 16.2549 5.70514 15.8358 5.66139 15.3843L4.7017 5.46667H15.2982ZM15.6831 15.514L15.6333 15.5092L15.6831 15.514L16.6537 5.46667H17.7083C17.8873 5.46667 18.059 5.39555 18.1856 5.26896C18.3122 5.14238 18.3833 4.97069 18.3833 4.79167C18.3833 4.61265 18.3122 4.44096 18.1856 4.31437C18.059 4.18778 17.8873 4.11667 17.7083 4.11667H12.9662C12.9599 3.7441 12.8835 3.3759 12.7408 3.03137C12.5917 2.67144 12.3732 2.3444 12.0977 2.06892C11.8222 1.79344 11.4952 1.57491 11.1353 1.42582C10.7753 1.27674 10.3895 1.2 9.99996 1.2C9.61037 1.2 9.2246 1.27674 8.86467 1.42582C8.50473 1.57491 8.17769 1.79344 7.90221 2.06892C7.62673 2.3444 7.40821 2.67144 7.25912 3.03137C7.11641 3.3759 7.03999 3.7441 7.03371 4.11667H2.29163C2.1126 4.11667 1.94092 4.18778 1.81433 4.31437C1.68774 4.44096 1.61663 4.61265 1.61663 4.79167C1.61663 4.97069 1.68774 5.14238 1.81433 5.26896C1.94092 5.39555 2.1126 5.46667 2.29163 5.46667H3.34623L4.31769 15.514C4.39367 16.2995 4.75948 17.0286 5.34381 17.5591C5.92814 18.0896 6.68909 18.3834 7.47829 18.3833H12.5216C13.311 18.3836 14.0721 18.0899 14.6566 17.5594C15.2411 17.0289 15.6071 16.2997 15.6831 15.514ZM11.1431 3.02351C11.4345 3.31489 11.6032 3.70604 11.6159 4.11667H8.38407C8.39676 3.70604 8.56542 3.31489 8.8568 3.02351C9.15999 2.72033 9.57119 2.55 9.99996 2.55C10.4287 2.55 10.8399 2.72033 11.1431 3.02351ZM8.79996 8.125C8.79996 7.94598 8.72884 7.77429 8.60226 7.6477C8.47567 7.52112 8.30398 7.45 8.12496 7.45C7.94594 7.45 7.77425 7.52112 7.64766 7.6477C7.52108 7.77429 7.44996 7.94598 7.44996 8.125V14.375C7.44996 14.554 7.52108 14.7257 7.64766 14.8523C7.77425 14.9789 7.94594 15.05 8.12496 15.05C8.30398 15.05 8.47567 14.9789 8.60226 14.8523C8.72884 14.7257 8.79996 14.554 8.79996 14.375V8.125ZM12.3523 7.6477C12.2257 7.52112 12.054 7.45 11.875 7.45C11.6959 7.45 11.5243 7.52112 11.3977 7.6477C11.2711 7.77429 11.2 7.94598 11.2 8.125V14.375C11.2 14.554 11.2711 14.7257 11.3977 14.8523C11.5243 14.9789 11.6959 15.05 11.875 15.05C12.054 15.05 12.2257 14.9789 12.3523 14.8523C12.4788 14.7257 12.55 14.554 12.55 14.375V8.125C12.55 7.94598 12.4788 7.77429 12.3523 7.6477Z"
        fill="#161617" stroke="#161617" stroke-width="0.1" />
</svg>
