<svg width="10" height="10" viewBox="0 0 10 10" fill="none" xmlns="http://www.w3.org/2000/svg">
    <path
        d="M2.49967 8.33333C2.38162 8.33333 2.28259 8.29333 2.20259 8.21333C2.12259 8.13333 2.08273 8.03444 2.08301 7.91667C2.08301 7.79861 2.12301 7.69958 2.20301 7.61958C2.28301 7.53958 2.3819 7.49972 2.49967 7.5H7.49967C7.61773 7.5 7.71676 7.54 7.79676 7.62C7.87676 7.7 7.91662 7.79889 7.91634 7.91667C7.91634 8.03472 7.87634 8.13375 7.79634 8.21375C7.71634 8.29375 7.61745 8.33361 7.49967 8.33333H2.49967ZM3.97884 6.48958C3.92329 6.48958 3.8712 6.48083 3.82259 6.46333C3.77398 6.44583 3.72884 6.41639 3.68717 6.375L1.91634 4.60417C1.83995 4.52778 1.80176 4.42708 1.80176 4.30208C1.80176 4.17708 1.83995 4.07639 1.91634 4C1.99273 3.92361 2.08995 3.88542 2.20801 3.88542C2.32606 3.88542 2.42329 3.92361 2.49967 4L3.97884 5.47917L7.49967 1.95833C7.57606 1.88194 7.67509 1.84375 7.79676 1.84375C7.91842 1.84375 8.01731 1.88194 8.09342 1.95833C8.16981 2.03472 8.20801 2.13375 8.20801 2.25542C8.20801 2.37708 8.16981 2.47597 8.09342 2.55208L4.27051 6.375C4.22884 6.41667 4.1837 6.44625 4.13509 6.46375C4.08648 6.48125 4.0344 6.48986 3.97884 6.48958Z"
        fill="white" />
</svg>
