<svg width="18" height="18" viewBox="0 0 18 18" fill="none" xmlns="http://www.w3.org/2000/svg">
    <g id="ic:round-mail">
        <path id="Vector"
            d="M15 3H3C2.175 3 1.5 3.675 1.5 4.5V13.5C1.5 14.325 2.175 15 3 15H15C15.825 15 16.5 14.325 16.5 13.5V4.5C16.5 3.675 15.825 3 15 3ZM14.7 6.1875L9.795 9.255C9.3075 9.5625 8.6925 9.5625 8.205 9.255L3.3 6.1875C3.2248 6.14528 3.15894 6.08825 3.10642 6.01984C3.05389 5.95143 3.0158 5.87308 2.99443 5.78953C2.97307 5.70597 2.96888 5.61895 2.98212 5.53373C2.99536 5.44851 3.02575 5.36686 3.07146 5.29373C3.11717 5.22059 3.17724 5.15749 3.24804 5.10825C3.31885 5.059 3.3989 5.02463 3.48337 5.00722C3.56784 4.98981 3.65496 4.98973 3.73947 5.00696C3.82397 5.0242 3.9041 5.0584 3.975 5.1075L9 8.25L14.025 5.1075C14.0959 5.0584 14.176 5.0242 14.2605 5.00696C14.345 4.98973 14.4322 4.98981 14.5166 5.00722C14.6011 5.02463 14.6812 5.059 14.752 5.10825C14.8228 5.15749 14.8828 5.22059 14.9285 5.29373C14.9742 5.36686 15.0046 5.44851 15.0179 5.53373C15.0311 5.61895 15.0269 5.70597 15.0056 5.78953C14.9842 5.87308 14.9461 5.95143 14.8936 6.01984C14.8411 6.08825 14.7752 6.14528 14.7 6.1875Z"
            fill="#D2D6E0" />
    </g>
</svg>
