<svg width="80" height="80" viewBox="0 0 80 80" fill="none" xmlns="http://www.w3.org/2000/svg">
    <path fill-rule="evenodd" clip-rule="evenodd"
        d="M0 30C0 15.8579 0 8.7868 4.3934 4.3934C8.7868 0 15.8579 0 30 0H32C32.5523 0 33 0.447715 33 1C33 1.55228 33.4477 2 34 2L46 2C46.5523 2 47 1.55228 47 1C47 0.447715 47.4477 0 48 0H50C64.1421 0 71.2132 0 75.6066 4.3934C80 8.7868 80 15.8579 80 30V32C80 32.5523 79.5523 33 79 33C78.4477 33 78 33.4477 78 34V46C78 46.5523 78.4477 47 79 47C79.5523 47 80 47.4477 80 48V50C80 64.1421 80 71.2132 75.6066 75.6066C71.2132 80 64.1421 80 50 80H30C15.8579 80 8.7868 80 4.3934 75.6066C0 71.2132 0 64.1421 0 50V30Z"
        fill="#EF8001" />
    <path d="M62.4984 50.5053L40.1627 64.5023L17.8271 50.5053L40.1627 36.5083L62.4984 50.5053Z"
        fill="#C85900" />
    <path d="M62.4984 39.685L40.1627 53.682L17.8271 39.685L40.1627 25.688L62.4984 39.685Z"
        fill="#E0710A" />
    <path d="M61.6713 28.9968L39.3356 42.9938L16.9999 28.9968L39.3356 14.9998L61.6713 28.9968Z"
        fill="white" />
</svg>
