<svg width="24" height="24" viewBox="0 0 24 24" fill="none" xmlns="http://www.w3.org/2000/svg">
    <path
        d="M11.01 3.05C6.51 3.54 3 7.36 3 12C3 14.3869 3.94821 16.6761 5.63604 18.364C7.32387 20.0518 9.61305 21 12 21C16.63 21 20.45 17.5 20.95 13C21.04 12.21 20.17 11.58 19.41 12.05C18.5937 12.5711 17.6523 12.8631 16.6844 12.8956C15.7165 12.9282 14.7576 12.6999 13.9082 12.2348C13.0587 11.7697 12.3499 11.0848 11.8559 10.2519C11.3618 9.41889 11.1008 8.46845 11.1 7.5C11.1 6.44 11.41 5.44 11.94 4.61C12.39 3.94 11.9 2.98 11.01 3.05Z"
        fill="black" />
</svg>
