<svg width="163" height="163" viewBox="0 0 163 163" fill="none" xmlns="http://www.w3.org/2000/svg">
    <path fill-rule="evenodd" clip-rule="evenodd"
        d="M119.569 138.023C122.941 138.023 128.249 136.292 129.868 134.62L129.873 134.624C131.373 133.084 125.879 69.3173 125.879 69.3173C125.879 57.0742 120.918 45.9982 112.899 37.9797C104.885 29.9611 93.8047 25 81.566 25C57.0932 25 37.2532 44.8356 37.2532 69.3129C37.2532 69.3129 31.7595 133.08 33.2594 134.62C34.8791 136.292 40.1863 138.023 43.5544 138.023C46.9225 138.023 48.6043 136.292 50.224 134.62C51.7815 133.013 53.2592 131.491 56.2235 131.491C59.181 131.491 60.6543 133.006 62.2123 134.609L62.223 134.62L62.2269 134.624C63.8498 136.295 65.5272 138.023 68.8925 138.023C72.2606 138.023 73.9424 136.292 75.5621 134.62C77.1197 133.013 78.5973 131.491 81.5616 131.491C84.5232 131.491 85.9964 133.01 87.5569 134.62L87.5611 134.624C89.1808 136.297 90.8626 138.023 94.2307 138.023C97.596 138.023 99.2734 136.295 100.896 134.624L100.9 134.62C102.458 133.013 103.935 131.491 106.9 131.491C109.861 131.491 111.335 133.01 112.895 134.62L112.899 134.624C114.519 136.297 116.196 138.023 119.569 138.023ZM74.9941 79.537C74.9586 79.3062 75.1628 79.1066 75.3935 79.1421C76.4763 79.3107 79.2408 79.6967 81.5572 79.6967C83.8736 79.6967 86.6381 79.3107 87.7209 79.1421C87.9516 79.1066 88.1558 79.3062 88.1203 79.537C87.4369 83.7349 84.7611 86.0867 81.5572 86.0867C78.3533 86.0867 75.6775 83.7349 74.9941 79.537ZM70.9737 73.0183C73.4465 73.0183 75.4512 71.0136 75.4512 68.5408C75.4512 66.068 73.4465 64.0634 70.9737 64.0634C68.5009 64.0634 66.4963 66.068 66.4963 68.5408C66.4963 71.0136 68.5009 73.0183 70.9737 73.0183ZM96.6181 68.5408C96.6181 71.0136 94.6135 73.0183 92.1407 73.0183C89.6678 73.0183 87.6632 71.0136 87.6632 68.5408C87.6632 66.068 89.6678 64.0634 92.1407 64.0634C94.6135 64.0634 96.6181 66.068 96.6181 68.5408Z"
        fill="#D2D6E0" />
</svg>
