<svg width="16" height="16" viewBox="0 0 16 16" fill="none" xmlns="http://www.w3.org/2000/svg">
    <g clip-path="url(#clip0_337_5233)">
        <path
            d="M7.06699 14.9333L1.06699 8.9333C0.533659 8.39997 0.533659 7.56663 1.06699 7.0333L7.06699 1.0333C7.60033 0.499967 8.43366 0.499967 8.96699 1.0333L14.967 7.0333C15.5003 7.56663 15.5003 8.39997 14.967 8.9333L8.96699 14.9333C8.43366 15.4666 7.56699 15.4666 7.06699 14.9333Z"
            fill="#F44336" />
        <path
            d="M7.20001 10.8999C7.20001 10.7999 7.23335 10.6999 7.26668 10.5999C7.30001 10.4999 7.36668 10.4333 7.43335 10.3666C7.50001 10.2999 7.60001 10.2333 7.70001 10.1999C7.80001 10.1666 7.90001 10.1333 8.03335 10.1333C8.16668 10.1333 8.26668 10.1666 8.36668 10.1999C8.46668 10.2333 8.56668 10.2999 8.63335 10.3666C8.70001 10.4333 8.76668 10.4999 8.80001 10.5999C8.83335 10.6999 8.86668 10.7999 8.86668 10.8999C8.86668 10.9999 8.83335 11.0999 8.80001 11.1999C8.76668 11.2999 8.70001 11.3666 8.63335 11.4333C8.56668 11.4999 8.46668 11.5666 8.36668 11.5999C8.26668 11.6333 8.16668 11.6666 8.03335 11.6666C7.90001 11.6666 7.80001 11.6333 7.70001 11.5999C7.60001 11.5666 7.53335 11.4999 7.43335 11.4333C7.36668 11.3666 7.30001 11.2999 7.26668 11.1999C7.23335 11.0999 7.20001 11.0333 7.20001 10.8999ZM8.60001 9.36659H7.40001L7.23335 4.33325H8.76668L8.60001 9.36659Z"
            fill="white" />
    </g>
    <defs>
        <clipPath id="clip0_337_5233">
            <rect width="16" height="16" fill="white" />
        </clipPath>
    </defs>
</svg>
