<svg width="16" height="16" viewBox="0 0 16 16" fill="none" xmlns="http://www.w3.org/2000/svg">
    <g clip-path="url(#clip0_337_5222)">
        <path
            d="M7.06699 14.9333L1.06699 8.9333C0.533659 8.39997 0.533659 7.56663 1.06699 7.0333L7.06699 1.0333C7.60033 0.499967 8.43366 0.499967 8.96699 1.0333L14.967 7.0333C15.5003 7.56663 15.5003 8.39997 14.967 8.9333L8.96699 14.9333C8.43366 15.4666 7.56699 15.4666 7.06699 14.9333Z"
            fill="#4CAF50" />
        <path
            d="M8.00065 8.66659C8.36884 8.66659 8.66732 8.36811 8.66732 7.99992C8.66732 7.63173 8.36884 7.33325 8.00065 7.33325C7.63246 7.33325 7.33398 7.63173 7.33398 7.99992C7.33398 8.36811 7.63246 8.66659 8.00065 8.66659Z"
            fill="white" />
        <path
            d="M10.6667 8.66659C11.0349 8.66659 11.3333 8.36811 11.3333 7.99992C11.3333 7.63173 11.0349 7.33325 10.6667 7.33325C10.2985 7.33325 10 7.63173 10 7.99992C10 8.36811 10.2985 8.66659 10.6667 8.66659Z"
            fill="white" />
        <path
            d="M5.33366 8.66659C5.70185 8.66659 6.00033 8.36811 6.00033 7.99992C6.00033 7.63173 5.70185 7.33325 5.33366 7.33325C4.96547 7.33325 4.66699 7.63173 4.66699 7.99992C4.66699 8.36811 4.96547 8.66659 5.33366 8.66659Z"
            fill="white" />
    </g>
    <defs>
        <clipPath id="clip0_337_5222">
            <rect width="16" height="16" fill="white" />
        </clipPath>
    </defs>
</svg>
