<svg width="25" height="24" viewBox="0 0 25 24" fill="none" xmlns="http://www.w3.org/2000/svg">
    <path
        d="M20.5004 19.9999L16.4504 15.9499M16.4504 15.9499C17.1004 15.2998 17.616 14.5281 17.9678 13.6788C18.3196 12.8295 18.5007 11.9192 18.5007 10.9999C18.5007 10.0806 18.3196 9.17027 17.9678 8.32095C17.616 7.47163 17.1004 6.69991 16.4504 6.04987C15.8003 5.39983 15.0286 4.88418 14.1793 4.53238C13.33 4.18058 12.4197 3.99951 11.5004 3.99951C10.5811 3.99951 9.67076 4.18058 8.82144 4.53238C7.97211 4.88418 7.2004 5.39983 6.55036 6.04987C5.23754 7.36269 4.5 9.14326 4.5 10.9999C4.5 12.8565 5.23754 14.637 6.55036 15.9499C7.86318 17.2627 9.64375 18.0002 11.5004 18.0002C13.357 18.0002 15.1375 17.2627 16.4504 15.9499ZM8.50036 10.9999H11.5004M11.5004 10.9999H14.5004M11.5004 10.9999V7.99987M11.5004 10.9999V13.9999"
        stroke="white" stroke-width="2" stroke-linecap="round" stroke-linejoin="round" />
</svg>
