<svg width="101" height="117" viewBox="0 0 101 117" fill="none" xmlns="http://www.w3.org/2000/svg">
    <path fill-rule="evenodd" clip-rule="evenodd"
        d="M88.5688 114.513C91.9413 114.513 97.2485 112.782 98.8682 111.11L98.8727 111.114C100.373 109.574 94.8789 45.8073 94.8789 45.8073C94.8789 33.5642 89.9178 22.4882 81.8992 14.4697C73.8851 6.45112 62.8047 1.48999 50.566 1.48999C26.0932 1.48999 6.25316 21.3256 6.25316 45.8029C6.25316 45.8029 0.759539 109.57 2.25941 111.11C3.8791 112.782 9.18635 114.513 12.5544 114.513C15.9225 114.513 17.6043 112.782 19.224 111.11C20.7815 109.503 22.2592 107.981 25.2235 107.981C28.181 107.981 29.6543 109.496 31.2123 111.099L31.223 111.11L31.2269 111.114C32.8498 112.785 34.5272 114.513 37.8925 114.513C41.2606 114.513 42.9424 112.782 44.5621 111.11C46.1197 109.503 47.5973 107.981 50.5616 107.981C53.5232 107.981 54.9964 109.5 56.5569 111.11L56.5611 111.114C58.1808 112.787 59.8626 114.513 63.2307 114.513C66.596 114.513 68.2734 112.785 69.8963 111.114L69.9002 111.11C71.4578 109.503 72.9355 107.981 75.8997 107.981C78.8613 107.981 80.3346 109.5 81.895 111.11L81.8992 111.114C83.5189 112.787 85.1963 114.513 88.5688 114.513ZM43.9941 56.027C43.9586 55.7962 44.1628 55.5965 44.3935 55.632C45.4763 55.8007 48.2408 56.1867 50.5572 56.1867C52.8736 56.1867 55.6381 55.8007 56.7209 55.632C56.9516 55.5965 57.1558 55.7962 57.1203 56.027C56.4369 60.2249 53.7611 62.5767 50.5572 62.5767C47.3533 62.5767 44.6775 60.2249 43.9941 56.027ZM39.9737 49.5083C42.4465 49.5083 44.4512 47.5037 44.4512 45.0309C44.4512 42.5581 42.4465 40.5535 39.9737 40.5535C37.5009 40.5535 35.4963 42.5581 35.4963 45.0309C35.4963 47.5037 37.5009 49.5083 39.9737 49.5083ZM65.6181 45.0309C65.6181 47.5037 63.6135 49.5083 61.1407 49.5083C58.6678 49.5083 56.6632 47.5037 56.6632 45.0309C56.6632 42.5581 58.6678 40.5535 61.1407 40.5535C63.6135 40.5535 65.6181 42.5581 65.6181 45.0309Z"
        fill="#D2D6E0" />
</svg>
