<svg width="24" height="24" viewBox="0 0 24 24" fill="none" xmlns="http://www.w3.org/2000/svg">
<path fill-rule="evenodd" clip-rule="evenodd" d="M17.25 10.5C17.25 11.3864 17.0754 12.2642 16.7362 13.0831C16.397 13.9021 15.8998 14.6462 15.273 15.273C14.6462 15.8998 13.9021 16.397 13.0831 16.7362C12.2642 17.0754 11.3864 17.25 10.5 17.25C9.61358 17.25 8.73583 17.0754 7.91689 16.7362C7.09794 16.397 6.35382 15.8998 5.72703 15.273C5.10023 14.6462 4.60303 13.9021 4.26381 13.0831C3.92459 12.2642 3.75 11.3864 3.75 10.5C3.75 8.70979 4.46116 6.9929 5.72703 5.72703C6.9929 4.46116 8.70979 3.75 10.5 3.75C12.2902 3.75 14.0071 4.46116 15.273 5.72703C16.5388 6.9929 17.25 8.70979 17.25 10.5ZM16.02 17.61C14.2116 19.014 11.936 19.676 9.6567 19.4612C7.37735 19.2465 5.26552 18.1711 3.75112 16.4541C2.23673 14.7371 1.43362 12.5074 1.5053 10.2191C1.57698 7.9308 2.51805 5.75581 4.13693 4.13693C5.75581 2.51805 7.9308 1.57698 10.2191 1.5053C12.5074 1.43362 14.7371 2.23673 16.4541 3.75112C18.1711 5.26552 19.2465 7.37735 19.4612 9.6567C19.676 11.936 19.014 14.2116 17.61 16.02L22.17 20.58C22.2805 20.683 22.3692 20.8072 22.4307 20.9452C22.4922 21.0832 22.5252 21.2322 22.5279 21.3832C22.5306 21.5343 22.5028 21.6843 22.4462 21.8244C22.3896 21.9645 22.3054 22.0917 22.1986 22.1986C22.0917 22.3054 21.9645 22.3896 21.8244 22.4462C21.6843 22.5028 21.5343 22.5306 21.3832 22.5279C21.2322 22.5252 21.0832 22.4922 20.9452 22.4307C20.8072 22.3692 20.683 22.2805 20.58 22.17L16.02 17.61Z" fill="black"/>
</svg>
