<svg width="48" height="30" viewBox="0 0 48 30" fill="none" xmlns="http://www.w3.org/2000/svg">
    <path
        d="M3.525 11.5V2.29H0.42V0.999999H8.205V2.29H5.115V11.5H3.525ZM10.4664 11.68C9.83641 11.68 9.31641 11.575 8.90641 11.365C8.49641 11.155 8.19141 10.88 7.99141 10.54C7.79141 10.19 7.69141 9.81 7.69141 9.4C7.69141 8.68 7.97141 8.11 8.53141 7.69C9.09141 7.27 9.89141 7.06 10.9314 7.06H12.8814V6.925C12.8814 6.345 12.7214 5.91 12.4014 5.62C12.0914 5.33 11.6864 5.185 11.1864 5.185C10.7464 5.185 10.3614 5.295 10.0314 5.515C9.71141 5.725 9.51641 6.04 9.44641 6.46H7.85641C7.90641 5.92 8.08641 5.46 8.39641 5.08C8.71641 4.69 9.11641 4.395 9.59641 4.195C10.0864 3.985 10.6214 3.88 11.2014 3.88C12.2414 3.88 13.0464 4.155 13.6164 4.705C14.1864 5.245 14.4714 5.985 14.4714 6.925V11.5H13.0914L12.9564 10.225C12.7464 10.635 12.4414 10.98 12.0414 11.26C11.6414 11.54 11.1164 11.68 10.4664 11.68ZM10.7814 10.39C11.2114 10.39 11.5714 10.29 11.8614 10.09C12.1614 9.88 12.3914 9.605 12.5514 9.265C12.7214 8.925 12.8264 8.55 12.8664 8.14H11.0964C10.4664 8.14 10.0164 8.25 9.74641 8.47C9.48641 8.69 9.35641 8.965 9.35641 9.295C9.35641 9.635 9.48141 9.905 9.73141 10.105C9.99141 10.295 10.3414 10.39 10.7814 10.39ZM18.7953 11.68C17.8553 11.68 17.0803 11.45 16.4703 10.99C15.8603 10.53 15.5103 9.92 15.4203 9.16H17.0253C17.1053 9.5 17.2953 9.795 17.5953 10.045C17.8953 10.285 18.2903 10.405 18.7803 10.405C19.2603 10.405 19.6103 10.305 19.8303 10.105C20.0503 9.905 20.1603 9.675 20.1603 9.415C20.1603 9.035 20.0053 8.78 19.6953 8.65C19.3953 8.51 18.9753 8.385 18.4353 8.275C18.0153 8.185 17.5953 8.065 17.1753 7.915C16.7653 7.765 16.4203 7.555 16.1403 7.285C15.8703 7.005 15.7353 6.63 15.7353 6.16C15.7353 5.51 15.9853 4.97 16.4853 4.54C16.9853 4.1 17.6853 3.88 18.5853 3.88C19.4153 3.88 20.0853 4.08 20.5953 4.48C21.1153 4.88 21.4203 5.445 21.5103 6.175H19.9803C19.9303 5.855 19.7803 5.605 19.5303 5.425C19.2903 5.245 18.9653 5.155 18.5553 5.155C18.1553 5.155 17.8453 5.24 17.6253 5.41C17.4053 5.57 17.2953 5.78 17.2953 6.04C17.2953 6.3 17.4453 6.505 17.7453 6.655C18.0553 6.805 18.4603 6.94 18.9603 7.06C19.4603 7.17 19.9203 7.3 20.3403 7.45C20.7703 7.59 21.1153 7.8 21.3753 8.08C21.6353 8.36 21.7653 8.77 21.7653 9.31C21.7753 9.99 21.5103 10.555 20.9703 11.005C20.4403 11.455 19.7153 11.68 18.7953 11.68ZM23.0011 11.5V0.7H24.5911V7.135L27.4411 4.06H29.3461L26.1811 7.435L29.8111 11.5H27.8011L24.5911 7.69V11.5H23.0011ZM4.53 26.68C3.76 26.68 3.085 26.545 2.505 26.275C1.925 26.005 1.47 25.62 1.14 25.12C0.82 24.62 0.655 24.025 0.645 23.335H2.325C2.335 23.895 2.53 24.37 2.91 24.76C3.29 25.15 3.825 25.345 4.515 25.345C5.125 25.345 5.6 25.2 5.94 24.91C6.29 24.61 6.465 24.23 6.465 23.77C6.465 23.4 6.38 23.1 6.21 22.87C6.05 22.64 5.825 22.45 5.535 22.3C5.255 22.15 4.93 22.015 4.56 21.895C4.19 21.775 3.8 21.645 3.39 21.505C2.58 21.235 1.97 20.885 1.56 20.455C1.16 20.025 0.96 19.46 0.96 18.76C0.95 18.17 1.085 17.655 1.365 17.215C1.655 16.775 2.055 16.435 2.565 16.195C3.085 15.945 3.69 15.82 4.38 15.82C5.06 15.82 5.655 15.945 6.165 16.195C6.685 16.445 7.09 16.795 7.38 17.245C7.67 17.685 7.82 18.2 7.83 18.79H6.15C6.15 18.52 6.08 18.265 5.94 18.025C5.8 17.775 5.595 17.57 5.325 17.41C5.055 17.25 4.725 17.17 4.335 17.17C3.835 17.16 3.42 17.285 3.09 17.545C2.77 17.805 2.61 18.165 2.61 18.625C2.61 19.035 2.73 19.35 2.97 19.57C3.21 19.79 3.54 19.975 3.96 20.125C4.38 20.265 4.86 20.43 5.4 20.62C5.92 20.79 6.385 20.995 6.795 21.235C7.205 21.475 7.53 21.79 7.77 22.18C8.02 22.57 8.145 23.065 8.145 23.665C8.145 24.195 8.01 24.69 7.74 25.15C7.47 25.6 7.065 25.97 6.525 26.26C5.985 26.54 5.32 26.68 4.53 26.68ZM9.32336 29.8V19.06H10.7484L10.9134 20.215C11.1534 19.865 11.4834 19.555 11.9034 19.285C12.3234 19.015 12.8634 18.88 13.5234 18.88C14.2434 18.88 14.8784 19.05 15.4284 19.39C15.9784 19.73 16.4084 20.195 16.7184 20.785C17.0384 21.375 17.1984 22.045 17.1984 22.795C17.1984 23.545 17.0384 24.215 16.7184 24.805C16.4084 25.385 15.9784 25.845 15.4284 26.185C14.8784 26.515 14.2384 26.68 13.5084 26.68C12.9284 26.68 12.4134 26.565 11.9634 26.335C11.5234 26.105 11.1734 25.78 10.9134 25.36V29.8H9.32336ZM13.2384 25.3C13.9184 25.3 14.4784 25.07 14.9184 24.61C15.3584 24.14 15.5784 23.53 15.5784 22.78C15.5784 22.29 15.4784 21.855 15.2784 21.475C15.0784 21.095 14.8034 20.8 14.4534 20.59C14.1034 20.37 13.6984 20.26 13.2384 20.26C12.5584 20.26 11.9984 20.495 11.5584 20.965C11.1284 21.435 10.9134 22.04 10.9134 22.78C10.9134 23.53 11.1284 24.14 11.5584 24.61C11.9984 25.07 12.5584 25.3 13.2384 25.3ZM18.4181 26.5V15.7H20.0081V20.26C20.2581 19.83 20.6031 19.495 21.0431 19.255C21.4931 19.005 21.9881 18.88 22.5281 18.88C23.4181 18.88 24.1181 19.16 24.6281 19.72C25.1381 20.28 25.3931 21.115 25.3931 22.225V26.5H23.8181V22.39C23.8181 20.95 23.2431 20.23 22.0931 20.23C21.4931 20.23 20.9931 20.44 20.5931 20.86C20.2031 21.28 20.0081 21.88 20.0081 22.66V26.5H18.4181ZM30.2457 26.68C29.5157 26.68 28.8657 26.52 28.2957 26.2C27.7357 25.87 27.2957 25.415 26.9757 24.835C26.6557 24.255 26.4957 23.58 26.4957 22.81C26.4957 22.03 26.6507 21.345 26.9607 20.755C27.2807 20.165 27.7207 19.705 28.2807 19.375C28.8507 19.045 29.5107 18.88 30.2607 18.88C30.9907 18.88 31.6257 19.045 32.1657 19.375C32.7057 19.695 33.1257 20.125 33.4257 20.665C33.7257 21.205 33.8757 21.8 33.8757 22.45C33.8757 22.55 33.8707 22.66 33.8607 22.78C33.8607 22.89 33.8557 23.015 33.8457 23.155H28.0557C28.1057 23.875 28.3407 24.425 28.7607 24.805C29.1907 25.175 29.6857 25.36 30.2457 25.36C30.6957 25.36 31.0707 25.26 31.3707 25.06C31.6807 24.85 31.9107 24.57 32.0607 24.22H33.6507C33.4507 24.92 33.0507 25.505 32.4507 25.975C31.8607 26.445 31.1257 26.68 30.2457 26.68ZM30.2457 20.185C29.7157 20.185 29.2457 20.345 28.8357 20.665C28.4257 20.975 28.1757 21.445 28.0857 22.075H32.2857C32.2557 21.495 32.0507 21.035 31.6707 20.695C31.2907 20.355 30.8157 20.185 30.2457 20.185ZM35.0255 26.5V19.06H36.4505L36.5855 20.47C36.8455 19.98 37.2055 19.595 37.6655 19.315C38.1355 19.025 38.7005 18.88 39.3605 18.88V20.545H38.9255C38.4855 20.545 38.0905 20.62 37.7405 20.77C37.4005 20.91 37.1255 21.155 36.9155 21.505C36.7155 21.845 36.6155 22.32 36.6155 22.93V26.5H35.0255ZM43.4987 26.68C42.7687 26.68 42.1187 26.52 41.5487 26.2C40.9887 25.87 40.5487 25.415 40.2287 24.835C39.9087 24.255 39.7487 23.58 39.7487 22.81C39.7487 22.03 39.9037 21.345 40.2137 20.755C40.5337 20.165 40.9737 19.705 41.5337 19.375C42.1037 19.045 42.7637 18.88 43.5137 18.88C44.2437 18.88 44.8787 19.045 45.4187 19.375C45.9587 19.695 46.3787 20.125 46.6787 20.665C46.9787 21.205 47.1287 21.8 47.1287 22.45C47.1287 22.55 47.1237 22.66 47.1137 22.78C47.1137 22.89 47.1087 23.015 47.0987 23.155H41.3087C41.3587 23.875 41.5937 24.425 42.0137 24.805C42.4437 25.175 42.9387 25.36 43.4987 25.36C43.9487 25.36 44.3237 25.26 44.6237 25.06C44.9337 24.85 45.1637 24.57 45.3137 24.22H46.9037C46.7037 24.92 46.3037 25.505 45.7037 25.975C45.1137 26.445 44.3787 26.68 43.4987 26.68ZM43.4987 20.185C42.9687 20.185 42.4987 20.345 42.0887 20.665C41.6787 20.975 41.4287 21.445 41.3387 22.075H45.5387C45.5087 21.495 45.3037 21.035 44.9237 20.695C44.5437 20.355 44.0687 20.185 43.4987 20.185Z"
        fill="black" />
</svg>
