<svg width="18" height="18" viewBox="0 0 18 18" fill="none" xmlns="http://www.w3.org/2000/svg">
    <g id="ri:twitter-fill">
        <path id="Vector"
            d="M16.659 4.24219C16.0867 4.49539 15.4797 4.66172 14.8583 4.73569C15.513 4.34354 16.003 3.72674 16.2368 3.00019C15.6218 3.36619 14.9475 3.62269 14.2455 3.76144C13.7735 3.25637 13.1478 2.92141 12.4657 2.80863C11.7837 2.69584 11.0835 2.81156 10.474 3.13778C9.86445 3.464 9.37979 3.98245 9.09534 4.61253C8.81088 5.24262 8.74256 5.94902 8.901 6.62194C7.6537 6.55953 6.43348 6.23548 5.31956 5.67084C4.20564 5.10619 3.22293 4.31357 2.43525 3.34444C2.15647 3.82328 2.00997 4.36761 2.01075 4.92169C2.01075 6.00919 2.565 6.96994 3.40575 7.53244C2.90776 7.51673 2.42074 7.38225 1.98525 7.14019V7.17844C1.98523 7.90284 2.23578 8.60496 2.6944 9.16569C3.15302 9.72643 3.79149 10.1113 4.5015 10.2549C4.03923 10.3803 3.55447 10.3988 3.084 10.3089C3.28419 10.9325 3.67441 11.4778 4.2 11.8685C4.72559 12.2592 5.36022 12.4757 6.015 12.4877C5.36427 12.9988 4.61917 13.3766 3.82231 13.5995C3.02545 13.8224 2.19247 13.886 1.371 13.7867C2.80479 14.7087 4.47383 15.1982 6.1785 15.1967C11.949 15.1967 15.1035 10.4169 15.1035 6.27169C15.1035 6.13669 15.1005 6.00019 15.0945 5.86594C15.7083 5.42221 16.2381 4.87186 16.659 4.24219Z"
            fill="#D2D6E0" />
    </g>
</svg>
