<svg width="24" height="24" viewBox="0 0 24 24" fill="none" xmlns="http://www.w3.org/2000/svg">
    <path fill-rule="evenodd" clip-rule="evenodd"
        d="M4.70707 3.29298C4.51846 3.11082 4.26586 3.01003 4.00366 3.01231C3.74147 3.01458 3.49066 3.11975 3.30525 3.30516C3.11984 3.49057 3.01467 3.74138 3.01239 4.00358C3.01011 4.26578 3.11091 4.51838 3.29307 4.70698L4.96307 6.37798C3.23007 7.71598 1.88907 9.53798 1.07007 11.636C0.978598 11.87 0.978598 12.1299 1.07007 12.364C2.80307 16.806 6.88407 20 12.0001 20C13.9351 20 15.7301 19.541 17.3101 18.724L19.2931 20.707C19.4817 20.8891 19.7343 20.9899 19.9965 20.9877C20.2587 20.9854 20.5095 20.8802 20.6949 20.6948C20.8803 20.5094 20.9855 20.2586 20.9877 19.9964C20.99 19.7342 20.8892 19.4816 20.7071 19.293L18.2061 16.792C18.1938 16.779 18.1811 16.7663 18.1681 16.754L14.8401 13.426L14.8291 13.414C14.8251 13.4103 14.8211 13.4066 14.8171 13.403L10.5971 9.18298C10.5895 9.17517 10.5819 9.1675 10.5741 9.15998L7.24507 5.82998C7.23273 5.81731 7.22006 5.80498 7.20707 5.79298L4.70707 3.29298ZM9.29207 10.707C9.02415 11.2669 8.93653 11.8962 9.04128 12.508C9.14603 13.1199 9.438 13.6842 9.87694 14.1231C10.3159 14.562 10.8802 14.854 11.492 14.9588C12.1038 15.0635 12.7331 14.9759 13.2931 14.708L9.29307 10.707H9.29207ZM10.8461 6.06698C11.2221 6.02198 11.6061 5.99998 12.0001 5.99998C16.0741 5.99998 19.3801 8.44298 20.9191 12C20.5791 12.787 20.1511 13.52 19.6481 14.184C19.5687 14.2886 19.5108 14.4079 19.4776 14.535C19.4444 14.662 19.4365 14.7944 19.4544 14.9245C19.4723 15.0545 19.5157 15.1798 19.582 15.2932C19.6484 15.4065 19.7364 15.5057 19.8411 15.585C19.9457 15.6643 20.065 15.7222 20.192 15.7555C20.3191 15.7887 20.4514 15.7966 20.5815 15.7786C20.7116 15.7607 20.8369 15.7173 20.9503 15.651C21.0636 15.5847 21.1627 15.4966 21.2421 15.392C21.9423 14.4654 22.511 13.4464 22.9321 12.364C23.0235 12.1299 23.0235 11.87 22.9321 11.636C21.1971 7.19398 17.1161 3.99998 12.0001 3.99998C11.5301 3.99998 11.0681 4.02698 10.6141 4.07998C10.3552 4.11607 10.1208 4.25208 9.96094 4.45888C9.80111 4.66568 9.72859 4.92683 9.75892 5.18643C9.78924 5.44603 9.92 5.68343 10.1232 5.84783C10.3264 6.01222 10.5859 6.09152 10.8461 6.06698Z"
        fill="#B2B6C0" />
</svg>
