<svg width="24" height="24" viewBox="0 0 24 24" fill="none" xmlns="http://www.w3.org/2000/svg">
    <path
        d="M9.75 12C9.75 11.4033 9.98705 10.831 10.409 10.409C10.831 9.98705 11.4033 9.75 12 9.75C12.5967 9.75 13.169 9.98705 13.591 10.409C14.0129 10.831 14.25 11.4033 14.25 12C14.25 12.5967 14.0129 13.169 13.591 13.591C13.169 14.0129 12.5967 14.25 12 14.25C11.4033 14.25 10.831 14.0129 10.409 13.591C9.98705 13.169 9.75 12.5967 9.75 12Z"
        fill="#B2B6C0" />
    <path fill-rule="evenodd" clip-rule="evenodd"
        d="M2 12C2 13.64 2.425 14.191 3.275 15.296C4.972 17.5 7.818 20 12 20C16.182 20 19.028 17.5 20.725 15.296C21.575 14.192 22 13.639 22 12C22 10.36 21.575 9.809 20.725 8.704C19.028 6.5 16.182 4 12 4C7.818 4 4.972 6.5 3.275 8.704C2.425 9.81 2 10.361 2 12ZM12 8.25C11.0054 8.25 10.0516 8.64509 9.34835 9.34835C8.64509 10.0516 8.25 11.0054 8.25 12C8.25 12.9946 8.64509 13.9484 9.34835 14.6517C10.0516 15.3549 11.0054 15.75 12 15.75C12.9946 15.75 13.9484 15.3549 14.6517 14.6517C15.3549 13.9484 15.75 12.9946 15.75 12C15.75 11.0054 15.3549 10.0516 14.6517 9.34835C13.9484 8.64509 12.9946 8.25 12 8.25Z"
        fill="#B2B6C0" />
</svg>
