<svg width="18" height="18" viewBox="0 0 18 18" fill="none" xmlns="http://www.w3.org/2000/svg">
    <g id="ri:whatsapp-fill">
        <path id="Vector"
            d="M9.00074 1.5C13.143 1.5 16.5007 4.85775 16.5007 9C16.5007 13.1423 13.143 16.5 9.00074 16.5C7.67533 16.5021 6.37324 16.1514 5.22824 15.4838L1.50374 16.5L2.51774 12.774C1.84956 11.6287 1.49853 10.326 1.50074 9C1.50074 4.85775 4.85849 1.5 9.00074 1.5ZM6.44474 5.475L6.29474 5.481C6.19763 5.48691 6.10273 5.51243 6.01574 5.556C5.93438 5.60207 5.86012 5.65967 5.79524 5.727C5.70524 5.81175 5.65424 5.88525 5.59949 5.9565C5.32208 6.31718 5.17272 6.75998 5.17499 7.215C5.17649 7.5825 5.27249 7.94025 5.42249 8.27475C5.72924 8.95125 6.23399 9.6675 6.89999 10.3312C7.06049 10.491 7.21799 10.6515 7.38749 10.8007C8.21504 11.5293 9.20118 12.0548 10.2675 12.3353L10.6935 12.4005C10.8322 12.408 10.971 12.3975 11.1105 12.3907C11.3289 12.3795 11.5422 12.3203 11.7352 12.2175C11.8335 12.1669 11.9293 12.1119 12.0225 12.0525C12.0225 12.0525 12.0547 12.0315 12.1162 11.985C12.2175 11.91 12.2797 11.8568 12.3637 11.769C12.426 11.7045 12.48 11.6287 12.5212 11.5425C12.5797 11.4202 12.6382 11.187 12.6622 10.9928C12.6802 10.8442 12.675 10.7633 12.6727 10.713C12.6697 10.6328 12.603 10.5495 12.5302 10.5142L12.0937 10.3185C12.0937 10.3185 11.4412 10.0343 11.0422 9.85275C11.0005 9.83452 10.9558 9.8241 10.9102 9.822C10.8589 9.81673 10.8071 9.8225 10.7582 9.83893C10.7093 9.85536 10.6645 9.88206 10.6267 9.91725C10.623 9.91575 10.5727 9.9585 10.0305 10.6155C9.99937 10.6573 9.9565 10.6889 9.90734 10.7063C9.85819 10.7237 9.80498 10.726 9.75449 10.713C9.70564 10.6999 9.65777 10.6834 9.61124 10.6635C9.51824 10.6245 9.48599 10.6095 9.42224 10.5825C8.99179 10.3947 8.59326 10.1409 8.24099 9.83025C8.14649 9.74775 8.05874 9.65775 7.96874 9.57075C7.67368 9.28817 7.41654 8.9685 7.20374 8.61975L7.15949 8.5485C7.12771 8.50062 7.10201 8.44898 7.08299 8.39475C7.05449 8.2845 7.12874 8.196 7.12874 8.196C7.12874 8.196 7.31099 7.9965 7.39574 7.8885C7.47824 7.7835 7.54799 7.6815 7.59299 7.60875C7.68149 7.46625 7.70924 7.32 7.66274 7.20675C7.45274 6.69375 7.23524 6.183 7.01174 5.676C6.96749 5.5755 6.83624 5.5035 6.71699 5.48925C6.67649 5.48475 6.63599 5.48025 6.59549 5.47725C6.49477 5.47225 6.39384 5.47325 6.29324 5.48025L6.44399 5.47425L6.44474 5.475Z"
            fill="#D2D6E0" />
    </g>
</svg>
